<svg width="20" height="20" viewBox="0 0 20 20" fill="none" xmlns="http://www.w3.org/2000/svg">
<path fill-rule="evenodd" clip-rule="evenodd" d="M20 10C20 15.5228 15.5228 20 10 20C4.47715 20 0 15.5228 0 10C0 4.47715 4.47715 0 10 0C15.5228 0 20 4.47715 20 10ZM10.6751 13.3798C9.10006 12.5406 7.81395 11.1916 7.01395 9.54245L8.23617 8.2546C8.38895 8.09434 8.43339 7.86416 8.37228 7.66312C8.16673 7.01045 8.05562 6.30825 8.05562 5.58274C8.05562 5.25932 7.80839 5 7.50006 5H5.55562C5.25006 5 5.00006 5.25932 5.00006 5.58274C5.00006 11.0547 9.22784 15.4893 14.4445 15.4893C14.7528 15.4893 15.0001 15.23 15.0001 14.9066V12.867C15.0001 12.5436 14.7528 12.2842 14.4445 12.2842C13.7528 12.2842 13.0834 12.1677 12.4612 11.9521C12.2695 11.888 12.0501 11.9346 11.8973 12.0948L10.6751 13.3798Z" fill="#0047AB"/>
</svg>
