<svg width="17" height="18" viewBox="0 0 17 18" fill="none" xmlns="http://www.w3.org/2000/svg">
<g id="Icon">
<path fill-rule="evenodd" clip-rule="evenodd" d="M5.55448 2.09768C4.38919 1.96744 3.18295 1.96744 2.01766 2.09768C1.73451 2.12932 1.51121 2.35353 1.47937 2.62583C1.34021 3.81561 1.34021 5.01756 1.47937 6.20734C1.51121 6.47964 1.73451 6.70385 2.01766 6.73549C3.18295 6.86573 4.38919 6.86573 5.55448 6.73549C5.83763 6.70385 6.06092 6.47964 6.09277 6.20734C6.23193 5.01756 6.23193 3.81561 6.09277 2.62583C6.06092 2.35353 5.83763 2.12932 5.55448 2.09768ZM1.86494 0.731186C3.13172 0.589605 4.44042 0.589605 5.7072 0.731186C6.61547 0.832699 7.35105 1.54769 7.45846 2.4661C7.61003 3.76201 7.61003 5.07116 7.45846 6.36707C7.35105 7.28548 6.61547 8.00047 5.7072 8.10198C4.44042 8.24357 3.13172 8.24357 1.86494 8.10198C0.956667 8.00047 0.221093 7.28548 0.113676 6.36707C-0.0378919 5.07116 -0.0378919 3.76201 0.113676 2.4661C0.221093 1.54769 0.956666 0.832699 1.86494 0.731186Z" fill="#0047AB"/>
<path fill-rule="evenodd" clip-rule="evenodd" d="M5.55448 11.2643C4.38919 11.1341 3.18295 11.1341 2.01766 11.2643C1.73451 11.296 1.51121 11.5202 1.47937 11.7925C1.34021 12.9823 1.34021 14.1842 1.47937 15.374C1.51121 15.6463 1.73451 15.8705 2.01766 15.9022C3.18295 16.0324 4.38919 16.0324 5.55448 15.9022C5.83763 15.8705 6.06092 15.6463 6.09277 15.374C6.23193 14.1842 6.23193 12.9823 6.09277 11.7925C6.06092 11.5202 5.83763 11.296 5.55448 11.2643ZM1.86494 9.89785C3.13172 9.75627 4.44042 9.75627 5.7072 9.89785C6.61547 9.99937 7.35105 10.7144 7.45846 11.6328C7.61003 12.9287 7.61003 14.2378 7.45846 15.5337C7.35105 16.4522 6.61547 17.1671 5.7072 17.2687C4.44042 17.4102 3.13172 17.4102 1.86494 17.2687C0.956667 17.1671 0.221093 16.4522 0.113676 15.5337C-0.0378919 14.2378 -0.0378919 12.9287 0.113676 11.6328C0.221093 10.7144 0.956666 9.99937 1.86494 9.89785Z" fill="#0047AB"/>
<path fill-rule="evenodd" clip-rule="evenodd" d="M14.7211 2.09768C13.5559 1.96744 12.3496 1.96744 11.1843 2.09768C10.9012 2.12932 10.6779 2.35353 10.646 2.62583C10.5069 3.81561 10.5069 5.01756 10.646 6.20734C10.6779 6.47964 10.9012 6.70385 11.1843 6.73549C12.3496 6.86573 13.5559 6.86573 14.7211 6.73549C15.0043 6.70385 15.2276 6.47964 15.2594 6.20734C15.3986 5.01756 15.3986 3.81561 15.2594 2.62583C15.2276 2.35353 15.0043 2.12932 14.7211 2.09768ZM11.0316 0.731186C12.2984 0.589605 13.6071 0.589605 14.8739 0.731186C15.7821 0.832699 16.5177 1.54769 16.6251 2.4661C16.7767 3.76201 16.7767 5.07116 16.6251 6.36707C16.5177 7.28548 15.7821 8.00047 14.8739 8.10198C13.6071 8.24357 12.2984 8.24357 11.0316 8.10198C10.1233 8.00047 9.38776 7.28548 9.28034 6.36707C9.12877 5.07116 9.12877 3.76201 9.28034 2.4661C9.38776 1.54769 10.1233 0.832699 11.0316 0.731186Z" fill="#0047AB"/>
<path fill-rule="evenodd" clip-rule="evenodd" d="M14.7211 11.2643C13.5559 11.1341 12.3496 11.1341 11.1843 11.2643C10.9012 11.296 10.6779 11.5202 10.646 11.7925C10.5069 12.9823 10.5069 14.1842 10.646 15.374C10.6779 15.6463 10.9012 15.8705 11.1843 15.9022C12.3496 16.0324 13.5559 16.0324 14.7211 15.9022C15.0043 15.8705 15.2276 15.6463 15.2594 15.374C15.3986 14.1842 15.3986 12.9823 15.2594 11.7925C15.2276 11.5202 15.0043 11.296 14.7211 11.2643ZM11.0316 9.89785C12.2984 9.75627 13.6071 9.75627 14.8739 9.89785C15.7821 9.99937 16.5177 10.7144 16.6251 11.6328C16.7767 12.9287 16.7767 14.2378 16.6251 15.5337C16.5177 16.4522 15.7821 17.1671 14.8739 17.2687C13.6071 17.4102 12.2984 17.4102 11.0316 17.2687C10.1233 17.1671 9.38776 16.4522 9.28034 15.5337C9.12877 14.2378 9.12877 12.9287 9.28034 11.6328C9.38776 10.7144 10.1233 9.99937 11.0316 9.89785Z" fill="#0047AB"/>
</g>
</svg>
