<svg width="16" height="16" viewBox="0 0 16 16" fill="none" xmlns="http://www.w3.org/2000/svg">
<path fill-rule="evenodd" clip-rule="evenodd" d="M11.1019 5.11L8.44021 2.82882C8.31594 2.71988 8.15906 2.66414 8.00136 2.66406C7.89345 2.66401 7.78515 2.69001 7.68666 2.74284C7.64276 2.76633 7.60106 2.79501 7.5625 2.82882L4.90081 5.11C4.62125 5.3496 4.58885 5.77047 4.82845 6.05003C5.06805 6.3296 5.48892 6.36199 5.76848 6.12239L7.33464 4.78012V9.94321C7.33464 10.3114 7.63312 10.6099 8.00131 10.6099C8.3695 10.6099 8.66798 10.3114 8.66798 9.94321L8.66798 4.78004L10.2342 6.12239C10.5138 6.36199 10.9347 6.3296 11.1743 6.05003C11.4139 5.77047 11.3815 5.3496 11.1019 5.11ZM4.0013 9.33073C4.0013 8.96254 4.29978 8.66406 4.66797 8.66406H5.66797C6.03616 8.66406 6.33464 8.36559 6.33464 7.9974C6.33464 7.62921 6.03616 7.33073 5.66797 7.33073H4.66797C3.5634 7.33073 2.66797 8.22616 2.66797 9.33073V11.3307C2.66797 12.4353 3.5634 13.3307 4.66797 13.3307H11.3346C12.4392 13.3307 13.3346 12.4353 13.3346 11.3307V9.33073C13.3346 8.22616 12.4392 7.33073 11.3346 7.33073H10.3346C9.96645 7.33073 9.66797 7.62921 9.66797 7.9974C9.66797 8.36559 9.96645 8.66406 10.3346 8.66406H11.3346C11.7028 8.66406 12.0013 8.96254 12.0013 9.33073V11.3307C12.0013 11.6989 11.7028 11.9974 11.3346 11.9974H4.66797C4.29978 11.9974 4.0013 11.6989 4.0013 11.3307V9.33073Z" fill="#0F3659"/>
</svg>
