<svg width="20" height="20" viewBox="0 0 20 20" fill="none" xmlns="http://www.w3.org/2000/svg">
<path fill-rule="evenodd" clip-rule="evenodd" d="M8.66232 0.0687497C10.7257 -0.356759 12.2224 1.26791 12.2224 2.87426V17.1257C12.2224 18.7321 10.7257 20.3568 8.66232 19.9312C3.70449 18.9092 0 14.8516 0 10C0 5.14839 3.70449 1.09078 8.66232 0.0687497ZM14.7702 6.22641C14.9785 6.03557 15.2611 5.92836 15.5557 5.92836C15.8504 5.92836 16.1329 6.03557 16.3413 6.22641L19.6747 9.2803C19.883 9.4712 20 9.73007 20 10C20 10.2699 19.883 10.5288 19.6747 10.7197L16.3413 13.7736C16.1317 13.959 15.8511 14.0616 15.5597 14.0593C15.2684 14.057 14.9897 13.9499 14.7837 13.7612C14.5777 13.5725 14.4608 13.3171 14.4583 13.0502C14.4558 12.7833 14.5678 12.5262 14.7702 12.3342L16.2069 11.018H6.66675C6.37206 11.018 6.08944 10.9107 5.88106 10.7198C5.67269 10.5289 5.55562 10.27 5.55562 10C5.55562 9.73002 5.67269 9.4711 5.88106 9.28019C6.08944 9.08929 6.37206 8.98204 6.66675 8.98204H16.2069L14.7702 7.66581C14.5619 7.47491 14.4449 7.21604 14.4449 6.94611C14.4449 6.67618 14.5619 6.41731 14.7702 6.22641Z" fill="white"/>
</svg>
