<svg width="21" height="19" viewBox="0 0 21 19" fill="none" xmlns="http://www.w3.org/2000/svg">
<path d="M0.5 9.49982C0.5 11.2613 0.925 11.8531 1.775 13.04C3.472 15.4072 6.318 18.0924 10.5 18.0924C14.682 18.0924 17.528 15.4072 19.225 13.04C20.075 11.8542 20.5 11.2602 20.5 9.49982C20.5 7.73834 20.075 7.14652 19.225 5.95967C17.528 3.59241 14.682 0.907227 10.5 0.907227C6.318 0.907227 3.472 3.59241 1.775 5.95967C0.925 7.1476 0.5 7.73941 0.5 9.49982Z" fill="white"/>
<path fill-rule="evenodd" clip-rule="evenodd" d="M6.5 9.23188C6.5 8.16365 6.89509 7.13917 7.59835 6.38381C8.30161 5.62846 9.25544 5.2041 10.25 5.2041C11.2446 5.2041 12.1984 5.62846 12.9017 6.38381C13.6049 7.13917 14 8.16365 14 9.23188C14 10.3001 13.6049 11.3246 12.9017 12.0799C12.1984 12.8353 11.2446 13.2597 10.25 13.2597C9.25544 13.2597 8.30161 12.8353 7.59835 12.0799C6.89509 11.3246 6.5 10.3001 6.5 9.23188ZM8 9.23188C8 8.59094 8.23705 7.97625 8.65901 7.52304C9.08097 7.06983 9.65326 6.81521 10.25 6.81521C10.8467 6.81521 11.419 7.06983 11.841 7.52304C12.2629 7.97625 12.5 8.59094 12.5 9.23188C12.5 9.87282 12.2629 10.4875 11.841 10.9407C11.419 11.3939 10.8467 11.6485 10.25 11.6485C9.65326 11.6485 9.08097 11.3939 8.65901 10.9407C8.23705 10.4875 8 9.87282 8 9.23188Z" fill="#249108"/>
</svg>
