<svg width="17" height="16" viewBox="0 0 17 16" fill="none" xmlns="http://www.w3.org/2000/svg">
<path fill-rule="evenodd" clip-rule="evenodd" d="M16.8888 8C16.8888 12.4183 13.1934 16 8.63483 16C4.07629 16 0.380859 12.4183 0.380859 8C0.380859 3.58172 4.07629 0 8.63483 0C13.1934 0 16.8888 3.58172 16.8888 8ZM9.19197 10.7038C7.89197 10.0325 6.83042 8.95328 6.1701 7.63396L7.17892 6.60368C7.30502 6.47547 7.34171 6.29133 7.29127 6.13049C7.1216 5.60836 7.02989 5.0466 7.02989 4.46619C7.02989 4.20746 6.82583 4 6.57134 4H4.9664C4.71419 4 4.50784 4.20746 4.50784 4.46619C4.50784 8.84372 7.99744 12.3914 12.3033 12.3914C12.5578 12.3914 12.7618 12.184 12.7618 11.9252V10.2936C12.7618 10.0348 12.5578 9.82739 12.3033 9.82739C11.7324 9.82739 11.1798 9.73415 10.6662 9.56166C10.508 9.51038 10.3269 9.54767 10.2008 9.67587L9.19197 10.7038Z" fill="#0047AB"/>
</svg>
