<svg width="15" height="15" viewBox="0 0 15 15" fill="none" xmlns="http://www.w3.org/2000/svg">
<path fill-rule="evenodd" clip-rule="evenodd" d="M8.99482 0.568332C8.14229 -0.189444 6.85769 -0.189444 6.00517 0.568332L0.251739 5.68252C-0.0578529 5.95769 -0.0857379 6.43177 0.189452 6.74136C0.464642 7.05089 0.938694 7.07879 1.24828 6.80361L1.50001 6.57989V10.7924C1.49997 11.4573 1.49994 12.0301 1.56161 12.4889C1.62771 12.9805 1.77677 13.4518 2.15902 13.834C2.54126 14.2163 3.01252 14.3653 3.50416 14.4315C3.96291 14.4931 4.53576 14.4931 5.20063 14.4931H9.79934C10.4642 14.4931 11.0371 14.4931 11.4958 14.4315C11.9875 14.3653 12.4588 14.2163 12.841 13.834C13.2232 13.4518 13.3723 12.9805 13.4384 12.4889C13.5001 12.0301 13.5001 11.4573 13.5 10.7925V6.57989L13.7517 6.80361C14.0613 7.07879 14.5354 7.05089 14.8105 6.74136C15.0857 6.43177 15.0579 5.95769 14.7483 5.68252L8.99482 0.568332ZM7.49999 9.99306C7.08577 9.99306 6.74999 10.3288 6.74999 10.7431V12.2431C6.74999 12.6573 6.41422 12.9931 6 12.9931C5.58579 12.9931 5.25 12.6573 5.25 12.2431V10.7431C5.25 9.50039 6.25732 8.49306 7.49999 8.49306C8.74267 8.49306 9.74999 9.50039 9.74999 10.7431V12.2431C9.74999 12.6573 9.41422 12.9931 8.99999 12.9931C8.58577 12.9931 8.24999 12.6573 8.24999 12.2431V10.7431C8.24999 10.3288 7.91422 9.99306 7.49999 9.99306Z" fill="#0047AB"/>
</svg>
