<svg width="61" height="60" viewBox="0 0 61 60" fill="none" xmlns="http://www.w3.org/2000/svg">
<rect width="61" height="60" fill="#1E1E1E"/>
<g id="Messages" clip-path="url(#clip0_0_1)">
<rect width="1728" height="2098" transform="translate(-1583 -1900)" fill="#F4F4F6"/>
<g id="Group 240554">
<g id="Frame 427319961">
<g clip-path="url(#clip1_0_1)">
<rect x="-987.368" y="-1502" width="1069" height="1605" rx="24" fill="white"/>
<g id="Group 240563">
<g id="Group 5791">
<circle id="Ellipse 380" cx="30.3682" cy="30" r="30" fill="#0047AB"/>
<path id="Vector" d="M41.5104 18.8012L42.2464 19.1164C42.3098 18.9693 42.3275 18.8066 42.2974 18.6494C42.2672 18.4921 42.1906 18.3475 42.0774 18.2343C41.9641 18.1211 41.8195 18.0444 41.6623 18.0143C41.505 17.9842 41.3423 18.0019 41.1952 18.0652L41.5104 18.8012ZM19.1104 28.4003L18.7952 27.6644C18.6596 27.7224 18.5426 27.8167 18.4572 27.937C18.3718 28.0574 18.3213 28.1989 18.3114 28.3461C18.3015 28.4933 18.3324 28.6404 18.4009 28.7711C18.4693 28.9018 18.5726 29.011 18.6992 29.0867L19.1104 28.4003ZM31.9104 41.1992L31.224 41.6104C31.2997 41.737 31.4089 41.8403 31.5396 41.9087C31.6703 41.9772 31.8174 42.0081 31.9646 41.9982C32.1119 41.9883 32.2534 41.9378 32.3738 41.8524C32.4941 41.767 32.5885 41.65 32.6464 41.5144L31.9104 41.1992ZM41.1952 18.0652L18.7952 27.6644L19.4256 29.1363L41.8256 19.5371L41.1952 18.0652ZM18.6992 29.0867L26.6992 33.8879L27.5216 32.5152L19.5216 27.7156L18.6992 29.0867ZM26.4224 33.6111L31.2224 41.6104L32.5952 40.788L27.7952 32.7888L26.4224 33.6111ZM32.6448 41.5144L42.2448 19.1164L40.7728 18.486L31.1728 40.884L32.6448 41.5144ZM40.944 18.2364L26.544 32.6352L27.6768 33.7663L42.0768 19.3675L40.944 18.2348V18.2364Z" fill="white"/>
</g>
</g>
</g>
</g>
</g>
</g>
<defs>
<clipPath id="clip0_0_1">
<rect width="1728" height="2098" fill="white" transform="translate(-1583 -1900)"/>
</clipPath>
<clipPath id="clip1_0_1">
<rect x="-987.368" y="-1502" width="1069" height="1605" rx="24" fill="white"/>
</clipPath>
</defs>
</svg>
